<?xml version="1.0" encoding="utf-8"?>
<!-- Generator: Adobe Illustrator 24.0.0, SVG Export Plug-In . SVG Version: 6.00 Build 0)  -->
<svg version="1.1" id="Layer_1" xmlns="http://www.w3.org/2000/svg" xmlns:xlink="http://www.w3.org/1999/xlink" x="0px" y="0px"
	 viewBox="0 0 486 168" style="enable-background:new 0 0 486 168;" xml:space="preserve">
<style type="text/css">
	.st0{fill:#FFFFFF;}
	.st1{fill:#2AC420;}
</style>
<g>
	<g transform="translate(207.000000, 24.000000)">
		<path class="st0" d="M274.5,6L274.5,6c2.5,0,4.5,2,4.5,4.5v81c0,2.5-2,4.5-4.5,4.5l0,0c-2.5,0-4.5-2-4.5-4.5v-81
			C270,8,272,6,274.5,6z"/>
		<path class="st0" d="M253.5,6L253.5,6c2.5,0,4.5,2,4.5,4.5v81c0,2.5-2,4.5-4.5,4.5l0,0c-2.5,0-4.5-2-4.5-4.5v-81
			C249,8,251,6,253.5,6z"/>
		<path class="st0" d="M228,44.6v-4.1c0-2.5,2-4.5,4.5-4.5c2.5,0,4.5,2,4.5,4.5v51c0,2.5-2,4.5-4.5,4.5c-2.5,0-4.5-2-4.5-4.5v-4.1
			c-5.4,5.3-12.8,8.6-21,8.6c-16.6,0-30-13.4-30-30s13.4-30,30-30C215.2,36,222.6,39.3,228,44.6z M207,87c11.6,0,21-9.4,21-21
			s-9.4-21-21-21s-21,9.4-21,21S195.4,87,207,87z"/>
		<path class="st0" d="M171.6,44.4c-11.9-11.9-31.2-11.9-43.1,0s-11.9,31.2,0,43.1s31.2,11.9,43.1,0c1.8-1.8,1.8-4.6,0-6.4
			c-1.8-1.8-4.6-1.8-6.4,0c-8.4,8.4-22,8.4-30.4,0s-8.4-22,0-30.4s22-8.4,30.4,0c1.8,1.8,4.6,1.8,6.4,0S173.3,46.2,171.6,44.4z"/>
		<path class="st0" d="M102,41.7v-1.1c0-2.5-2-4.5-4.5-4.5C95,36,93,38,93,40.5v51c0,2.5,2,4.5,4.5,4.5c2.5,0,4.5-2,4.5-4.5V65.1
			c0.3-12.3,6-20.1,14.9-20.1c2.5,0,4.5-2,4.5-4.5s-2-4.5-4.5-4.5C110.9,36,105.9,38.1,102,41.7L102,41.7z"/>
		<path class="st0" d="M76.5,36L76.5,36c2.5,0,4.5,2,4.5,4.5v51c0,2.5-2,4.5-4.5,4.5l0,0C74,96,72,94,72,91.5v-51
			C72,38,74,36,76.5,36z"/>
		<circle class="st1" cx="76.5" cy="10.5" r="10.5"/>
		<path class="st0" d="M51,44.6v-4.1c0-2.5,2-4.5,4.5-4.5c2.5,0,4.5,2,4.5,4.5v51c0,2.5-2,4.5-4.5,4.5C53,96,51,94,51,91.5v-4.1
			C45.6,92.7,38.2,96,30,96C13.4,96,0,82.6,0,66s13.4-30,30-30C38.2,36,45.6,39.3,51,44.6z M30,87c11.6,0,21-9.4,21-21
			s-9.4-21-21-21S9,54.4,9,66S18.4,87,30,87z"/>
	</g>
	<path class="st1" d="M84,168c-46.2,0-84-37.8-84-84S37.8,0,84,0s84,37.8,84,84S130.2,168,84,168z M84,12c-39.6,0-72,32.4-72,72
		s32.4,72,72,72s72-32.4,72-72S123.6,12,84,12z M122.3,100.6c-2-1.8-4.3-3.2-6.6-4.3c-3.5-1.7-8.6-4.3-12.4-1.8
		c-1.3,0.8-2.3,2.3-3.5,3.3c-1.5,1.5-3.2,3-5.1,4c-8.5,4.3-19.6,2.5-26.5-4c-4-4.1-6.5-10.1-6.3-15.9c0.2-4.5,1.7-9.1,4.5-12.8
		c1.2-1.5,2.7-2.8,4-4.3c1.3-1.3,2.2-2.8,2.2-4.8c0-2.5-1.2-4.8-2.2-7.1c-1-2.2-2-4.5-3.5-6.3c-1.3-1.8-3.3-3.8-5.5-4.6
		c-1-0.3-2-0.5-3-0.2C57,42.1,56,43.1,55,43.9C50.7,47.2,46.2,51,44.1,56c-3.6,8-2,17.1,1.2,24.9c3.6,8.8,9.6,16.7,16.6,23.2
		c4.1,4.1,8.8,8,13.8,11.1c6.5,4,13.9,7.3,21.6,8.1c5.3,0.7,10.9-0.2,15.6-2.7c2-1.2,3.8-2.5,5.5-4.1c1.8-1.8,3.8-3.8,5.3-5.8
		c1-1.2,2.3-2.3,2.5-4.1C126.2,104.3,124,102.1,122.3,100.6z"/>
</g>
</svg>
