<?xml version="1.0" encoding="utf-8"?>
<!-- Generator: Adobe Illustrator 24.0.0, SVG Export Plug-In . SVG Version: 6.00 Build 0)  -->
<svg version="1.1" id="Layer_1" xmlns="http://www.w3.org/2000/svg" xmlns:xlink="http://www.w3.org/1999/xlink" x="0px" y="0px"
	 viewBox="0 0 142.8 142.8" style="enable-background:new 0 0 142.8 142.8;" xml:space="preserve">
<style type="text/css">
	.st0{fill:#010101;}
</style>
<g>
	<path class="st0" d="M112.2,1.5H30.6c-16.1,0-29.1,13-29.1,29.1v5.8c0,5,2.1,9.7,5.8,13v62.7c0,16.1,13,29.1,29.1,29.1h9.6
		c3.2,0,5.8-2.6,5.8-5.8s-2.6-5.8-5.8-5.8h-9.6c-9.6,0-17.5-7.8-17.5-17.5V53.9h104.8v58.2c0,9.6-7.8,17.5-17.5,17.5h-9.6v0
		c-3.2,0.1-5.7,2.6-5.7,5.8c0,3.2,2.5,5.8,5.7,5.8v0h9.6c16.1,0,29.1-13,29.1-29.1V49.5c3.7-3.3,5.8-8,5.8-13v-5.8
		C141.3,14.6,128.2,1.5,112.2,1.5z M129.6,36.5c0,3.2-2.6,5.8-5.8,5.8H19c-3.2,0-5.8-2.6-5.8-5.8v-5.8c0-9.6,7.8-17.5,17.5-17.5
		h81.5c9.6,0,17.5,7.8,17.5,17.5V36.5z"/>
	<path class="st0" d="M97.9,99.6c2.4-2.4,2.4-6.4,0-8.8L80.2,73c-4.9-4.9-12.8-4.9-17.7,0L44.9,90.7c-2.4,2.4-2.4,6.4,0,8.8
		c2.4,2.4,6.4,2.4,8.8,0L65,88.2c0,5.5,0.1,41.4,0.1,46.7c0,0.1,0,0.1,0,0.2c0.1,3.5,2.9,6.2,6.4,6.1c3.5-0.1,6.2-2.9,6.1-6.4
		c0-5.2-0.1-41.3-0.1-46.9l11.5,11.5C91.5,102,95.5,102,97.9,99.6z"/>
</g>
</svg>
