<?xml version="1.0" encoding="utf-8"?>
<!-- Generator: Adobe Illustrator 24.0.0, SVG Export Plug-In . SVG Version: 6.00 Build 0)  -->
<svg version="1.1" id="Layer_1" xmlns="http://www.w3.org/2000/svg" xmlns:xlink="http://www.w3.org/1999/xlink" x="0px" y="0px"
	 viewBox="0 0 100 100" style="enable-background:new 0 0 100 100;" xml:space="preserve">
<g>
	<path d="M23.2,72.7h53.6c12.7,0,23.1-10.2,23.1-22.7c0-12.5-10.3-22.7-23.1-22.7c-12.7,0-23.1,10.2-23.1,22.7
		c0,5.2,1.8,10,4.8,13.8H41.4c3-3.8,4.8-8.6,4.8-13.8c0-12.5-10.3-22.7-23.1-22.7C10.5,27.3,0.1,37.5,0.1,50
		C0.1,62.5,10.5,72.7,23.2,72.7z M76.8,36.2c7.7,0,14,6.2,14,13.8c0,7.6-6.3,13.8-14,13.8c-7.7,0-14-6.2-14-13.8
		C62.8,42.4,69.1,36.2,76.8,36.2z M23.2,36.2c7.7,0,14,6.2,14,13.8c0,7.6-6.3,13.8-14,13.8c-7.7,0-14-6.2-14-13.8
		C9.2,42.4,15.5,36.2,23.2,36.2z"/>
</g>
</svg>
